<?xml version="1.0" standalone="no"?>
<!DOCTYPE svg PUBLIC "-//W3C//DTD SVG 20010904//EN"
 "http://www.w3.org/TR/2001/REC-SVG-20010904/DTD/svg10.dtd">
<svg version="1.0" xmlns="http://www.w3.org/2000/svg"
 width="1080.000000pt" height="1080.000000pt" viewBox="0 0 1080.000000 1080.000000"
 preserveAspectRatio="xMidYMid meet">
<metadata>
Created by potrace 1.14, written by Peter Selinger 2001-2017
</metadata>
<g transform="translate(0.000000,1080.000000) scale(0.100000,-0.100000)"
fill="#000000" stroke="none">
<path d="M1173 8210 c-21 -27 -60 -81 -88 -120 -27 -39 -64 -90 -81 -113 -48
-66 -162 -222 -242 -332 -40 -55 -104 -143 -142 -195 l-70 -95 -1 -80 c0 -44
-2 -192 -4 -330 -2 -137 -7 -482 -11 -765 -3 -283 -7 -560 -8 -615 -2 -79 -10
-128 -39 -235 -45 -167 -67 -251 -72 -270 -6 -24 -111 -418 -160 -605 -52
-193 -53 -198 -59 -224 -3 -11 -14 -53 -25 -93 -11 -40 -34 -125 -50 -188 -17
-63 -44 -167 -61 -230 -37 -134 -59 -224 -57 -226 1 -1 47 -18 102 -39 239
-91 283 -107 337 -127 l57 -21 -4 -304 c-3 -167 -1 -303 3 -304 4 0 14 -2 22
-3 8 -2 69 -6 135 -10 66 -4 138 -9 160 -11 22 -2 85 -6 140 -10 55 -4 123 -9
150 -11 28 -2 95 -6 150 -9 229 -14 382 -25 425 -30 19 -2 85 -7 145 -10 61
-3 126 -8 145 -10 19 -2 87 -7 150 -10 63 -3 135 -8 160 -10 25 -2 88 -7 140
-11 52 -3 113 -8 135 -9 22 -2 101 -7 175 -10 l135 -7 1 43 c1 38 9 210 19
389 1 30 6 123 9 205 4 83 9 179 11 215 2 36 7 119 10 185 11 250 14 273 62
405 24 69 49 134 54 145 5 11 27 70 48 130 37 101 64 177 143 390 17 44 39
106 50 138 11 32 22 57 23 55 7 -7 28 -232 29 -313 0 -79 -7 -184 -19 -265 -2
-14 -6 -55 -10 -92 -3 -37 -7 -75 -9 -85 -2 -10 -7 -56 -11 -103 -3 -47 -8
-96 -10 -110 -4 -26 -12 -110 -20 -190 -3 -25 -7 -65 -9 -90 -3 -25 -8 -70
-11 -100 -3 -30 -8 -71 -10 -90 -2 -19 -7 -62 -10 -95 -3 -33 -8 -72 -9 -87
-3 -25 18 -46 188 -195 105 -92 193 -170 196 -173 3 -3 38 -34 79 -70 l74 -64
121 -2 c221 -3 1398 -16 1600 -17 192 -2 199 -1 202 18 3 20 17 287 18 357 1
21 3 38 5 38 2 0 89 -86 194 -192 l190 -192 131 -2 c72 -2 334 -6 581 -9 248
-3 519 -8 603 -10 l153 -3 35 51 c103 149 161 233 278 406 l129 190 43 -75
c123 -216 322 -382 569 -476 77 -29 191 -63 245 -72 19 -3 46 -8 60 -11 160
-32 573 -20 710 20 8 2 27 6 41 9 157 27 446 134 659 244 310 161 370 237 395
502 3 36 8 72 10 80 2 8 7 44 10 80 4 36 8 76 10 90 2 21 11 93 30 260 26 215
27 240 15 293 -7 29 -24 72 -38 97 -23 41 -25 55 -26 170 -1 113 -3 130 -26
174 -69 136 -203 212 -347 199 -26 -3 -106 -28 -178 -55 -229 -88 -450 -133
-550 -111 -34 8 -40 13 -39 34 1 54 25 239 39 299 2 8 4 19 4 23 1 4 152 6
337 4 359 -4 380 -2 448 46 71 49 107 108 127 209 6 29 13 64 15 78 3 14 26
124 50 245 25 121 47 231 50 245 2 14 16 84 31 155 38 194 32 272 -33 382 -15
26 -23 51 -19 65 42 179 -41 361 -198 437 -70 34 -118 43 -258 44 l-98 1 6 26
c3 14 22 70 40 125 57 166 50 284 -23 394 -20 31 -23 43 -15 64 6 15 9 64 8
109 -3 65 -9 95 -29 139 -33 67 -99 139 -159 169 -91 47 -106 48 -696 46
l-558 -1 -62 -32 c-97 -51 -177 -132 -198 -203 -4 -14 -13 -38 -20 -55 -7 -16
-23 -59 -35 -95 -12 -36 -25 -72 -29 -80 -4 -8 -40 -116 -80 -240 -40 -124
-76 -232 -79 -240 -3 -8 -7 -23 -8 -33 -2 -10 -10 -32 -17 -50 l-14 -32 -204
1 c-227 1 -266 -6 -362 -68 -52 -34 -120 -115 -138 -166 -6 -18 -14 -32 -17
-31 -4 0 -117 142 -252 315 -135 174 -283 364 -330 424 -47 59 -135 173 -197
252 -95 121 -117 143 -140 144 -26 1 -161 11 -263 19 -25 2 -85 6 -135 10 -49
3 -108 8 -130 10 -22 2 -76 7 -120 10 -44 3 -102 8 -130 10 -27 2 -90 7 -140
10 -49 4 -106 8 -126 10 -19 2 -76 7 -125 10 -49 3 -109 8 -134 10 -25 2 -83
7 -130 10 -47 4 -105 8 -130 10 -25 2 -85 7 -135 10 -49 4 -106 8 -125 10 -19
2 -80 6 -135 10 -55 4 -113 9 -130 10 -16 1 -70 6 -120 9 -49 4 -108 9 -130
11 -22 2 -85 6 -140 10 l-100 6 -40 -35 c-22 -19 -71 -60 -110 -92 -38 -31
-88 -71 -110 -89 -22 -19 -85 -70 -140 -115 -55 -45 -111 -92 -125 -103 -14
-12 -47 -40 -75 -61 -27 -22 -52 -42 -55 -46 -11 -13 -97 -80 -104 -80 -3 0
-4 24 -1 53 13 162 20 345 13 352 -2 3 -18 7 -34 9 -30 3 -393 72 -564 106
-52 10 -111 22 -130 25 -19 3 -42 8 -50 10 -16 5 -179 34 -221 41 -34 4 -329
61 -389 74 -25 5 -56 11 -70 14 -14 2 -110 20 -215 40 -104 20 -202 38 -217
41 -23 4 -33 -3 -65 -45z m6342 -3122 c55 -17 69 -19 135 -19 l65 1 2 -208 c1
-114 3 -226 5 -249 5 -51 -2 -55 -20 -10 -7 17 -18 41 -24 52 -6 11 -49 97
-96 190 -46 94 -95 192 -109 219 -23 44 -24 49 -7 42 10 -5 33 -12 49 -18z"/>
</g>
</svg>
